<svg width="1280" height="640" viewBox="0 0 1280 640" fill="none" xmlns="http://www.w3.org/2000/svg">
  <defs>
    <linearGradient id="bg" x1="0" y1="0" x2="1280" y2="640" gradientUnits="userSpaceOnUse">
      <stop stop-color="#0F172A"/>
      <stop offset="0.5" stop-color="#0E7490"/>
      <stop offset="1" stop-color="#16A34A"/>
    </linearGradient>
    <filter id="shadow" x="-20%" y="-20%" width="140%" height="140%">
      <feDropShadow dx="0" dy="18" stdDeviation="18" flood-opacity="0.25"/>
    </filter>
  </defs>
  <rect width="1280" height="640" rx="38" fill="url(#bg)"/>
  <circle cx="1080" cy="90" r="170" fill="white" fill-opacity="0.08"/>
  <circle cx="90" cy="560" r="210" fill="white" fill-opacity="0.08"/>
  <g filter="url(#shadow)">
    <rect x="780" y="88" width="300" height="464" rx="44" fill="#F8FAFC"/>
    <rect x="804" y="126" width="252" height="380" rx="24" fill="#FFFFFF"/>
    <rect x="834" y="158" width="118" height="18" rx="9" fill="#0F172A"/>
    <rect x="834" y="194" width="182" height="12" rx="6" fill="#94A3B8"/>
    <rect x="834" y="234" width="182" height="58" rx="16" fill="#E0F2FE"/>
    <rect x="854" y="254" width="80" height="12" rx="6" fill="#0369A1"/>
    <rect x="854" y="274" width="128" height="10" rx="5" fill="#38BDF8"/>
    <rect x="834" y="314" width="182" height="58" rx="16" fill="#DCFCE7"/>
    <rect x="854" y="334" width="98" height="12" rx="6" fill="#166534"/>
    <rect x="854" y="354" width="116" height="10" rx="5" fill="#22C55E"/>
    <rect x="834" y="394" width="84" height="78" rx="16" fill="#FEF3C7"/>
    <rect x="932" y="394" width="84" height="78" rx="16" fill="#FFE4E6"/>
    <circle cx="930" cy="526" r="10" fill="#CBD5E1"/>
  </g>
  <text x="96" y="150" fill="#FFFFFF" font-family="Arial, Helvetica, sans-serif" font-size="38" font-weight="700" letter-spacing="2">FINAL YEAR PROJECT</text>
  <text x="96" y="226" fill="#FFFFFF" font-family="Arial, Helvetica, sans-serif" font-size="70" font-weight="900">Dukan App</text>
  <text x="96" y="292" fill="#DFFBFF" font-family="Arial, Helvetica, sans-serif" font-size="34" font-weight="600">Mobile Invoicing • Inventory • Cashflow</text>
  <text x="96" y="352" fill="#E0F2FE" font-family="Arial, Helvetica, sans-serif" font-size="26">Offline-first shop management app for small businesses.</text>
  <g font-family="Arial, Helvetica, sans-serif" font-size="22" font-weight="700">
    <rect x="96" y="410" width="170" height="54" rx="27" fill="white" fill-opacity="0.16"/>
    <text x="126" y="444" fill="#FFFFFF">SQLite</text>
    <rect x="286" y="410" width="190" height="54" rx="27" fill="white" fill-opacity="0.16"/>
    <text x="318" y="444" fill="#FFFFFF">Supabase</text>
    <rect x="496" y="410" width="230" height="54" rx="27" fill="white" fill-opacity="0.16"/>
    <text x="528" y="444" fill="#FFFFFF">React Native</text>
    <rect x="96" y="486" width="178" height="54" rx="27" fill="white" fill-opacity="0.16"/>
    <text x="128" y="520" fill="#FFFFFF">TypeScript</text>
    <rect x="294" y="486" width="150" height="54" rx="27" fill="white" fill-opacity="0.16"/>
    <text x="326" y="520" fill="#FFFFFF">Expo</text>
    <rect x="464" y="486" width="190" height="54" rx="27" fill="white" fill-opacity="0.16"/>
    <text x="496" y="520" fill="#FFFFFF">Sync Queue</text>
  </g>
</svg>
